<?xml version="1.0" encoding="utf-8"?>
<!-- Generator: Adobe Illustrator 16.0.0, SVG Export Plug-In . SVG Version: 6.00 Build 0)  -->
<!DOCTYPE svg PUBLIC "-//W3C//DTD SVG 1.1//EN" "http://www.w3.org/Graphics/SVG/1.1/DTD/svg11.dtd">
<svg version="1.1" id="Layer_1" xmlns="http://www.w3.org/2000/svg" xmlns:xlink="http://www.w3.org/1999/xlink" x="0px" y="0px"
	 width="500px" height="500px" viewBox="0 0 500 500" enable-background="new 0 0 500 500" xml:space="preserve">
<rect x="0.001" fill="none" width="499.999" height="499.999"/>
<g fill="#333333">
	<path d="M160.38,211.913c-59.997,145.752-9.704,201.355,6.775,207.541l38.452-96.701
		c-13.489-5.35-10.396-21.139-1.404-52.674c5.921-20.873,15.239-45.959,27.649-69.58c8.728-16.622,18.675-32.227,32.815-26.611
		l39.266-99.202C287.027,70.047,217.306,73.587,160.38,211.913z"/>
	<path d="M299.52,187.723c6.246,2.482,12.775-0.793,15.035-6.531h0.102c0,0,30.74-77.617,30.762-77.657
		c2.381-5.961-0.59-12.614-6.512-14.933l-27.344-10.905l-39.428,99.162c0,0,27.324,10.884,27.344,10.884L299.52,187.723z"/>
	<path d="M250,4.984c-138.083,0-250,111.938-250,250c0,94.584,52.552,176.859,130.025,219.342l1.506-0.143
		c0.468,0,0.936,0.02,1.383,0.02c0.97,0,1.927-0.016,2.875-0.041c0.091-0.002,0.18-0.006,0.27-0.01
		c41.408-1.205,62.436-26.053,70.967-39.885c4.392-0.316,8.27-3.176,9.894-7.326l0.102-0.041c0,0,29.887-75.357,29.887-75.48
		c2.38-5.961-0.59-12.572-6.469-14.934l-27.405-10.863l-38.513,96.965c0,0,0.763,0.303,2.016,0.803
		c-6.983,8.555-20.482,19.563-43.703,19.563c-0.174,0-2.947,0.346-5.161,0.617C65.915,403.511,25.004,334.103,25.004,254.983
		C25.004,130.736,125.732,30.008,250,30.008c124.246,0,224.996,100.728,224.996,224.975c0,109.334-77.984,200.359-181.316,220.705
		c6.307,7.16,14.73,13.977,25.717,19.326C423.664,464.925,500,368.956,500,254.983C500,116.922,388.082,4.984,250,4.984z"/>
</g>
</svg>
