<?xml version="1.0" encoding="utf-8"?>
<!-- Generator: Adobe Illustrator 16.0.0, SVG Export Plug-In . SVG Version: 6.00 Build 0)  -->
<!DOCTYPE svg PUBLIC "-//W3C//DTD SVG 1.1//EN" "http://www.w3.org/Graphics/SVG/1.1/DTD/svg11.dtd">
<svg version="1.1" id="Layer_1" xmlns="http://www.w3.org/2000/svg" xmlns:xlink="http://www.w3.org/1999/xlink" x="0px" y="0px"
	 width="500px" height="500px" viewBox="0 0 500 500" enable-background="new 0 0 500 500" xml:space="preserve">
<rect fill="none" width="499.998" height="500"/>
<g fill="#333333">
	<g>
		<path d="M224.803,450.357c-14.496,0-29.002-5.451-40.131-16.418L16.988,268.514c-22.43-22.135-22.674-58.39-0.57-80.851
			L135.874,66.63c22.136-22.44,58.4-22.685,80.841-0.569l60.455,59.651l-20.152,20.427l-60.444-59.672
			c-11.169-10.986-29.236-10.884-40.273,0.305L36.845,207.804c-11.027,11.189-10.905,29.256,0.285,40.264l167.664,165.465
			c11.2,11.008,29.267,10.865,40.282-0.305l119.466-121.074c11.006-11.168,10.885-29.234-0.295-40.242l-49.51-48.869l20.141-20.406
			l49.521,48.848c22.398,22.094,22.654,58.391,0.549,80.792L265.49,433.371C254.332,444.703,239.562,450.357,224.803,450.357z"/>
	</g>
	<path d="M201.518,114.502c0,12.654-10.284,22.929-22.949,22.929s-22.939-10.274-22.939-22.929
		c0-12.695,10.274-22.949,22.939-22.949S201.518,101.807,201.518,114.502z"/>
	<path d="M247.386,378.316c0,12.695-10.274,22.949-22.939,22.949s-22.929-10.254-22.929-22.949c0-12.676,10.264-22.93,22.929-22.93
		S247.386,365.641,247.386,378.316z"/>
	<path d="M234.802,268.779c-15.869,25.572-43.66,37.027-62.052,25.613c-18.392-11.453-20.417-41.422-4.537-66.997
		c15.889-25.533,43.681-37.007,62.052-25.593C248.657,213.257,250.68,243.246,234.802,268.779z"/>
	<rect x="475.146" y="201.253" width="24.852" height="142.659"/>
	<path d="M386.971,125.956c-25.816-26.754-52.57-13.387-52.57-13.387l-77.434,37.313c-16.194,11.454,1.902,36.031,1.902,36.031
		c12.43,16.947,51.625-10.233,51.625-10.233l1.018,0.712c17.762-9.989,40.791-7.345,55.531,8.016l47.344,49.276
		c17.486,18.229,16.896,47.405-1.283,64.881l-35.705,45.348l0,0h80.303V200.541L386.971,125.956z"/>
</g>
</svg>
