<?xml version="1.0" encoding="utf-8"?>
<!-- Generator: Adobe Illustrator 16.0.0, SVG Export Plug-In . SVG Version: 6.00 Build 0)  -->
<!DOCTYPE svg PUBLIC "-//W3C//DTD SVG 1.1//EN" "http://www.w3.org/Graphics/SVG/1.1/DTD/svg11.dtd">
<svg version="1.1" id="Layer_1" xmlns="http://www.w3.org/2000/svg" xmlns:xlink="http://www.w3.org/1999/xlink" x="0px" y="0px"
	 width="500px" height="500px" viewBox="0 0 500 500" enable-background="new 0 0 500 500" xml:space="preserve">
<g fill="#333333">
	<path d="M153.908,145.37H81.718L68.067,250.631h85.841V145.37z M134.78,231.488H89.846l8.696-66.974h36.237V231.488z"/>
	<path d="M232.063,56.063v11.159v215.29h267.941V67.222V56.063H232.063z M480.859,263.377H251.191V86.358h229.668V263.377z"/>
	<path d="M401.096,303.756c-5.398,0-10.607,0.727-15.656,1.895H214.119V111.887H37.954L0.281,265.096l-0.284,118.299H52.9
		c4.703,34.123,33.743,60.543,69.111,60.543c35.369,0,64.409-26.42,69.128-60.543h140.828c4.719,34.123,33.744,60.543,69.129,60.543
		s64.408-26.42,69.127-60.543h29.781V305.65h-83.252C411.701,304.482,406.492,303.756,401.096,303.756z M19.157,268.529
		l33.806-137.506h142.012v193.756h156.184c-10.305,10.479-17.076,24.242-19.191,39.486H191.139
		c-4.719-34.09-33.759-60.51-69.128-60.51c-35.368,0-64.408,26.42-69.111,60.51H19.157V268.529z M122.011,426.48
		c-29.023,0-52.65-23.609-52.65-52.65c0-29.039,23.627-52.65,52.65-52.65c29.04,0,52.667,23.611,52.667,52.65
		C174.678,402.871,151.051,426.48,122.011,426.48z M401.096,426.48c-29.041,0-52.668-23.609-52.668-52.65
		c0-29.039,23.627-52.65,52.668-52.65c29.039,0,52.666,23.611,52.666,52.65C453.762,402.871,430.135,426.48,401.096,426.48z
		 M480.859,364.266h-10.637c-2.115-15.244-8.885-29.008-19.191-39.486h29.828V364.266z"/>
</g>
</svg>
