<?xml version="1.0" encoding="utf-8"?>
<!-- Generator: Adobe Illustrator 16.0.0, SVG Export Plug-In . SVG Version: 6.00 Build 0)  -->
<!DOCTYPE svg PUBLIC "-//W3C//DTD SVG 1.1//EN" "http://www.w3.org/Graphics/SVG/1.1/DTD/svg11.dtd">
<svg version="1.1" id="Layer_1" xmlns="http://www.w3.org/2000/svg" xmlns:xlink="http://www.w3.org/1999/xlink" x="0px" y="0px"
	 width="500px" height="500px" viewBox="0 0 500 500" enable-background="new 0 0 500 500" xml:space="preserve">
<rect fill="none" width="499.997" height="499.998"/>
<g>
	<g fill="#333333">
		<path  d="M438.313,118.203c8.137-7.175,8.953-19.606,1.777-27.741c-3.5-3.984-7.145-7.854-10.969-11.647l0,0v-0.032
			l0,0v-0.017C383.36,33.018,322.511,7.832,257.825,7.832c-58.112,0-113.087,20.385-156.802,57.658L67.721,32.236
			c-4.961-4.979-12.202-6.914-18.969-5.076c-6.819,1.806-12.073,7.095-13.911,13.879L0.772,168.246
			c-1.82,6.816,0.115,14.043,5.076,18.97c3.742,3.775,8.737,5.76,13.911,5.76c1.677,0,3.4-0.195,5.076-0.666l127.225-34.083
			c6.752-1.807,12.056-7.095,13.893-13.879c1.806-6.802-0.129-14.008-5.091-18.987l-32.001-31.986
			c36.23-29.934,81.346-46.269,128.964-46.269c54.211,0,105.166,21.135,143.512,59.464v0.018c0.049,0,0.049,0,0.049,0
			c3.186,3.188,6.248,6.491,9.189,9.825c3.891,4.427,9.309,6.672,14.76,6.672C429.938,123.084,434.556,121.474,438.313,118.203z"/>
		<path  d="M203.813,445.832c-8.737-2.408-17.442-5.465-25.788-8.998c-9.957-4.229-21.507,0.377-25.785,10.365
			c-4.249,9.988,0.388,21.525,10.394,25.768c9.942,4.264,20.304,7.877,30.798,10.738c1.726,0.488,3.466,0.719,5.208,0.719
			c8.622,0,16.546-5.746,18.952-14.449C220.455,459.5,214.29,448.68,203.813,445.832z"/>
		<path  d="M294.153,449.85c-8.934,1.596-18.074,2.637-27.152,3.043c-10.836,0.471-19.21,9.664-18.723,20.5
			c0.438,10.543,9.127,18.773,19.602,18.773c0.277,0,0.584-0.018,0.877-0.018c10.836-0.488,21.734-1.707,32.395-3.643
			c10.67-1.936,17.768-12.17,15.828-22.826C315.062,454.99,304.763,447.865,294.153,449.85z"/>
		<path  d="M444.448,170.136c3.563,8.344,6.625,17.031,9.031,25.785c2.41,8.702,10.332,14.431,18.922,14.431
			c1.725,0,3.516-0.228,5.238-0.716c10.459-2.896,16.594-13.715,13.715-24.16c-2.895-10.459-6.506-20.824-10.787-30.798
			c-4.26-9.957-15.799-14.594-25.75-10.33C444.81,148.626,440.202,160.179,444.448,170.136z"/>
		<path  d="M377.21,414.316c-7.369,5.371-15.131,10.252-23.086,14.545c-9.533,5.16-13.131,17.084-7.99,26.635
			c3.582,6.572,10.332,10.33,17.326,10.33c3.145,0,6.346-0.764,9.289-2.359c9.537-5.139,18.811-10.996,27.611-17.408
			c8.77-6.375,10.689-18.658,4.295-27.445C398.276,409.844,385.995,407.908,377.21,414.316z"/>
		<path  d="M463.29,338.213c-9.596-5.125-21.477-1.549-26.602,8.002c-4.295,7.99-9.176,15.75-14.529,23.117
			c-6.395,8.771-4.441,21.07,4.314,27.432c3.494,2.537,7.529,3.758,11.553,3.758c6.08,0,12.07-2.799,15.912-8.068
			c6.373-8.801,12.217-18.09,17.355-27.607C476.419,355.262,472.821,343.369,463.29,338.213z"/>
		<path d="M481.091,240.318c-0.293-0.016-0.572-0.016-0.879-0.016c-10.432,0-19.119,8.231-19.588,18.791
			c-0.424,9.109-1.42,18.236-3.045,27.137c-1.934,10.689,5.158,20.891,15.863,22.826c1.17,0.227,2.357,0.324,3.498,0.324
			c9.305,0,17.602-6.67,19.309-16.188c1.939-10.609,3.145-21.508,3.633-32.375C500.335,249.983,491.94,240.791,481.091,240.318z"/>
		<path d="M114.284,393.656c-7.68-7.662-20.126-7.662-27.789,0c-7.663,7.664-7.663,20.092,0,27.771
			c3.807,3.791,7.711,7.451,11.699,10.951c3.692,3.268,8.329,4.881,12.949,4.881c5.45,0,10.901-2.262,14.772-6.672
			c7.16-8.152,6.345-20.58-1.82-27.738C120.79,399.92,117.488,396.846,114.284,393.656z"/>
	</g>
</g>
</svg>
